<?xml version="1.0" encoding="utf-8"?>
<!-- Svg Vector Icons : http://www.onlinewebfonts.com/icon -->
<!DOCTYPE svg PUBLIC "-//W3C//DTD SVG 1.1//EN" "http://www.w3.org/Graphics/SVG/1.1/DTD/svg11.dtd">
<svg version="1.1" xmlns="http://www.w3.org/2000/svg" xmlns:xlink="http://www.w3.org/1999/xlink" x="0px" y="0px" viewBox="0 0 1000 1000" enable-background="new 0 0 1000 1000" xml:space="preserve">
<metadata> Svg Vector Icons : http://www.onlinewebfonts.com/icon </metadata>
<g><path d="M571,215.9c12.3-20.6,32.9-32.9,53.5-16.5l74.1,49.4c32.9,24.7,12.3,53.5,4.1,65.9L517.5,615.3c-8.2,12.3-20.6,16.4-32.9,8.2c0,0-4.1-4.1-57.6-37.1c-53.5-32.9-41.2-82.4-12.4-131.8L571,215.9z"/><path d="M727.5,10c56.9,0,102.9,46.1,102.9,102.9c0,56.9-46.1,102.9-102.9,102.9c-56.9,0-102.9-46.1-102.9-102.9C624.5,56.1,670.6,10,727.5,10z"/><path d="M612.2,191.2l-156.5-53.5c-12.3-4.1-28.8-4.1-37.1,0l-177.1,94.7c-24.7,12.4-33,41.2-20.6,61.8c8.2,16.5,20.6,24.7,37.1,24.7c8.2,0,16.5,0,24.7-4.1l160.6-82.4l140,49.4c24.7,8.2,49.4-4.1,57.7-28.8C649.2,224.1,636.9,199.4,612.2,191.2z"/><path d="M352.7,565.9L299.2,640H105.7l0,0C76.9,640,48,664.7,48,693.5c0,33,24.7,57.7,57.6,57.7h226.5l0,0c20.6,0,37.1-8.2,49.4-28.8l53.5-78.2C431,644.1,356.9,594.7,352.7,565.9z"/><path d="M682.2,635.9L484.5,491.8c-24.7-16.5-61.8-12.4-78.2,16.5c-16.5,24.7-12.4,61.7,16.5,78.2l156.5,115.3l-94.7,210c-12.4,28.8,0,61.8,28.8,74.1c8.2,4.1,16.5,4.1,24.7,4.1c20.6,0,41.2-12.3,49.4-32.9l111.2-255.3C711,681.2,702.8,652.3,682.2,635.9z"/><path d="M916.9,454.7l-152.3-37.1l-45.3-140c-8.2-24.7-32.9-37.1-57.6-28.8c-24.7,8.2-37.1,33-28.8,57.7l53.5,164.7c4.1,16.5,16.5,28.8,32.9,32.9l177.1,45.3h4.1c24.7,4.1,45.3-12.3,49.4-37C958,483.5,941.6,458.8,916.9,454.7z"/></g>
</svg>